<?xml version="1.0" standalone="no"?>
<!DOCTYPE svg PUBLIC "-//W3C//DTD SVG 20010904//EN"
 "http://www.w3.org/TR/2001/REC-SVG-20010904/DTD/svg10.dtd">
<svg version="1.0" xmlns="http://www.w3.org/2000/svg"
 width="300.000000pt" height="300.000000pt" viewBox="0 0 300.000000 300.000000"
 preserveAspectRatio="xMidYMid meet">

<g transform="translate(0.000000,300.000000) scale(0.100000,-0.100000)"
fill="#000000" stroke="none">
<path d="M1395 2858 c-60 -4 -117 -9 -125 -11 -8 -2 -42 -9 -75 -16 -324 -69
-660 -301 -841 -582 -91 -141 -158 -298 -195 -463 -29 -125 -36 -356 -15 -491
68 -445 343 -822 746 -1025 92 -46 178 -77 300 -108 95 -24 123 -26 300 -27
215 0 275 8 436 60 356 116 651 376 814 718 145 305 171 674 69 993 -89 279
-276 540 -507 704 -97 69 -280 163 -363 186 -239 66 -323 76 -544 62z m221
-566 c68 -27 128 -84 163 -153 27 -53 31 -73 31 -139 0 -66 -4 -86 -30 -138
-33 -65 -76 -109 -143 -144 -35 -19 -58 -23 -137 -23 -79 0 -102 4 -137 23
-67 35 -110 79 -143 144 -61 124 -31 284 71 372 95 82 211 102 325 58z m71
-807 c231 -44 414 -150 477 -277 24 -49 26 -61 26 -202 0 -140 -1 -151 -22
-173 l-21 -23 -649 0 c-635 0 -648 0 -668 20 -18 18 -20 33 -20 173 0 139 2
156 24 202 99 209 513 344 853 280z"/>
</g>
</svg>
